<?xml version="1.0" encoding="utf-8"?>
<!-- Generator: Adobe Illustrator 19.0.0, SVG Export Plug-In . SVG Version: 6.00 Build 0)  -->
<svg version="1.1" id="OBJECTS" xmlns="http://www.w3.org/2000/svg" xmlns:xlink="http://www.w3.org/1999/xlink" x="0px" y="0px"
	 viewBox="-270 72 418 418" style="enable-background:new -270 72 418 418;" xml:space="preserve">
<style type="text/css">
	.st0{opacity:0.74;fill:#FECD32;enable-background:new    ;}
	.st1{fill:#FECD32;}
	.st2{fill:#E5E1E3;}
	.st3{fill:#B5B3B4;}
	.st4{fill:#969696;}
	.st5{fill:#534B63;}
	.st6{fill:#FFFFFF;}
	.st7{fill:#007CD4;}
	.st8{fill:none;}
	.st9{font-family:'ArialMT';}
	.st10{font-size:12px;}
	.st11{font-family:'FranklinGothic-DemiCond';}
	.st12{font-size:28.6096px;}
	.st13{enable-background:new    ;}
</style>
<g>
	<path class="st0" d="M92.4,233.8H65.9V210c0-14.6-10.7-26.5-23.7-26.5h-234.6c-13.1,0-23.7,11.9-23.7,26.5v36
		c0,14.6,10.7,26.5,23.7,26.5h29.2c0.7,1.5,1.5,2.9,2.5,4.2h-2.7c-13.1,0-23.7,11.9-23.7,26.5c0,14.6,10.7,26.5,23.7,26.5H24.1
		c13.1,0,23.7-11.9,23.7-26.5c0-6.2-1.9-12-5.2-16.5h49.7c13.1,0,23.7-11.9,23.7-26.5C116.2,245.7,105.5,233.8,92.4,233.8z"/>
	<path class="st1" d="M109.7,227H80.4c-3.6,0-6.5-2.9-6.5-6.5l0,0c0-3.6,2.9-6.5,6.5-6.5h29.3c3.6,0,6.5,2.9,6.5,6.5l0,0
		C116.2,224,113.2,227,109.7,227z"/>
	<path class="st1" d="M127.8,309.4H62.2c-3.6,0-6.5-2.9-6.5-6.5l0,0c0-3.6,2.9-6.5,6.5-6.5h65.6c3.6,0,6.5,2.9,6.5,6.5l0,0
		C134.3,306.5,131.4,309.4,127.8,309.4z"/>
	<path class="st1" d="M-197.7,291.5h-44.4c-3.6,0-6.5,2.9-6.5,6.5l0,0c0,3.6,2.9,6.5,6.5,6.5h44.4c3.6,0,6.5-2.9,6.5-6.5l0,0
		C-191.2,294.4-194.2,291.5-197.7,291.5z"/>
	<path class="st1" d="M-236.8,271.1h-7.6c-3.6,0-6.5,2.9-6.5,6.5l0,0c0,3.6,2.9,6.5,6.5,6.5h7.6c3.6,0,6.5-2.9,6.5-6.5l0,0
		C-230.3,274.1-233.2,271.1-236.8,271.1z"/>
	<path class="st1" d="M98.9,205.3c-0.2,2.3-2.1,3.9-4.2,3.7s-3.7-2.2-3.5-4.5s2.1-3.9,4.2-3.7S99.1,203,98.9,205.3z"/>
	<path class="st1" d="M-250.6,266.8c-0.2,2.3-2.1,3.9-4.2,3.7c-2.1-0.2-3.7-2.2-3.5-4.5c0.2-2.3,2.1-3.9,4.2-3.7
		C-252,262.6-250.5,264.6-250.6,266.8z"/>
	<path class="st1" d="M-146.2,158.6c-0.2,2.3-2.1,3.9-4.2,3.7c-2.1-0.2-3.7-2.2-3.5-4.5c0.2-2.3,2.1-3.9,4.2-3.7
		C-147.6,154.4-146,156.4-146.2,158.6z"/>
	<path class="st1" d="M125.6,229c-0.1,1.4-1.2,2.5-2.5,2.4s-2.3-1.3-2.3-2.7c0.1-1.4,1.2-2.5,2.5-2.4
		C124.6,226.3,125.6,227.5,125.6,229z"/>
	<path class="st1" d="M132,224.3c0,0.9-0.8,1.6-1.6,1.5c-0.8,0-1.5-0.8-1.4-1.7c0-0.9,0.8-1.6,1.6-1.5
		C131.4,222.6,132.1,223.4,132,224.3z"/>
	<path class="st1" d="M88.7,317.7c-0.1,1.4-1.2,2.5-2.5,2.4c-1.3-0.1-2.3-1.3-2.3-2.7c0.1-1.4,1.2-2.5,2.5-2.4
		C87.8,315.1,88.8,316.3,88.7,317.7z"/>
	<path class="st1" d="M74.1,314.4c0,0.9-0.8,1.6-1.6,1.5c-0.8,0-1.5-0.8-1.4-1.7c0-0.9,0.8-1.6,1.6-1.5
		C73.5,312.8,74.2,313.6,74.1,314.4z"/>
	<path class="st1" d="M-198.6,282.6c-0.1,1.4-1.2,2.5-2.5,2.4c-1.3-0.1-2.3-1.3-2.3-2.7c0.1-1.4,1.2-2.5,2.5-2.4
		C-199.5,280-198.5,281.2-198.6,282.6z"/>
	<path class="st1" d="M-213.2,279.3c0,0.9-0.8,1.6-1.6,1.5c-0.8-0.1-1.5-0.8-1.4-1.7c0-0.9,0.8-1.6,1.6-1.5
		C-213.8,277.7-213.1,278.4-213.2,279.3z"/>
	<path class="st1" d="M-143.8,174.7c-0.1,1.4-1.2,2.5-2.5,2.4c-1.3-0.1-2.3-1.3-2.3-2.7c0.1-1.4,1.2-2.5,2.5-2.4
		C-144.7,172.1-143.7,173.3-143.8,174.7z"/>
	<path class="st1" d="M-158.4,171.4c0,0.9-0.8,1.6-1.6,1.5c-0.8,0-1.5-0.8-1.4-1.7c0-0.9,0.8-1.6,1.6-1.5
		C-159,169.8-158.3,170.5-158.4,171.4z"/>
</g>
<g>
	<ellipse class="st2" cx="-59.8" cy="348.5" rx="66.3" ry="8.3"/>
	<g>
		<rect x="-74.9" y="319.6" class="st3" width="25.2" height="19.8"/>
		<rect x="-74.9" y="316.1" class="st4" width="25.2" height="9.9"/>
		<path class="st4" d="M-16.8,350.4h-91.1c-2.4,0-4.4-2-4.4-4.4v-3.3c0-2.4,2-4.4,4.4-4.4h91.1c2.4,0,4.4,2,4.4,4.4v3.3
			C-12.4,348.5-14.4,350.4-16.8,350.4z"/>
		<path class="st5" d="M7.7,228.8h-51.6l-11.8,11.8l9.5,8.5l-23.4,29.5l8.7-27l-11.8-8.5l6.7-7.6l-6.7-6.8h-57.1
			c-1.7,0-3.1,1.4-3.1,3.1v84.7c0,1.7,1.4,3.1,3.1,3.1H7.7c1.7,0,3.1-1.4,3.1-3.1v-84.7C10.8,230.1,9.4,228.8,7.7,228.8z"/>
		<path class="st3" d="M10.8,312.5h-143.6v4.8c0,1.3,1,2.3,2.3,2.3h139c1.3,0,2.3-1,2.3-2.3V312.5z"/>
		<path class="st6" d="M2.6,235.5h-53.2l-5,5l9.5,8.5l-23.4,29.5l8.7-27l-11.8-8.5l6.7-7.6h-58.6c-1.4,0-2.5,1.1-2.5,2.5V303
			c0,1.4,1.1,2.5,2.5,2.5H2.6c1.4,0,2.5-1.1,2.5-2.5v-65C5,236.7,3.9,235.5,2.6,235.5z"/>
	</g>
</g>
<g>
	<g>
		<path class="st7" d="M-60.9,229.8c4.3-4.1,0.6-12.2-5.9-12.7c-4.5-0.3-10.2,2-12.9-1.2c-1.7-2.1-0.5-5-1-7.5
			c-2-10.4-19.9-8.2-27.1-9c-12.5-1.5-25.2-12.1-25.3-25.9c0-7.7,4.1-14.9,9.6-20.2c26.3-25.2,70.4-32.5,105-29.5
			c21.9,1.9,57.1,7.3,61.1,34.8c1.1,7.7-1.8,15.6-6.3,21.9c-19.7,27.1-58.5,23.4-87.4,21c-3-0.3-6.2-0.5-9,0.5s-5,3.7-4.1,6.3
			c6,0.8,11,5.4,11.7,10.7c0.7,5.2-3,10.6-8.6,12.5L-60.9,229.8z"/>
	</g>
	<g>
		<path id="SVGID_x5F_1_x5F_" class="st8" d="M-117.4,176.2c0,0,86,11.5,149-22"/>
		<text transform="matrix(1 0 0 1 -270 72)" class="st9 st10">  </text>
		<text transform="matrix(1 0 0 1 -100.3905 177.6258)" class="st9 st10"> </text>
		<text transform="matrix(1 0 0 1 -97.0627 177.8751)" class="st6 st11 st12">O</text>
		<text transform="matrix(1 0 0 1 -80.9841 178.197)" class="st6 st11 st12">O</text>
		<text transform="matrix(1 0 0 1 -64.9073 177.785)" class="st6 st11 st12">O</text>
		<text transform="matrix(1 0 0 1 -48.8679 176.606)" class="st6 st11 st12">O</text>
		<text transform="matrix(1 0 0 1 -32.9104 174.5947)" class="st6 st11 st12">O</text>
		<text transform="matrix(1 0 0 1 -17.1012 171.6362)" class="st6 st11 st12">P</text>
		<text transform="matrix(1 0 0 1 -2.9114 168.0654)" class="st6 st11 st12">S</text>
		<text transform="matrix(1 0 0 1 10.9604 163.4277)" class="st6 st11 st12">.</text>
		<text transform="matrix(1 0 0 1 17.7642 160.7626)" class="st6 st11 st12">.</text>
		<text transform="matrix(1 0 0 1 24.4504 157.8145)" class="st6 st11 st12">.</text>
		<text transform="matrix(1 0 0 1 -270 72)" class="st9 st10"> </text>
	</g>
</g>
<g>
	<g class="st13">
		<path class="st7" d="M-150.1,372.2h7.3v18.6h3.4v5.2h-3.4v7.2h-6.7V396h-11v-5.2L-150.1,372.2z M-148.9,391.2v-12.6l-6.8,12.6
			H-148.9z"/>
		<path class="st7" d="M-116.3,387.6c0,5.5-0.8,9.6-2.4,12.2c-1.6,2.6-4.2,3.9-7.8,3.9c-3.7,0-6.4-1.4-7.9-4.1s-2.3-6.5-2.3-11.3
			c0-5.5,0.8-9.6,2.4-12.2c1.6-2.6,4.2-3.9,7.8-3.9c3.7,0,6.4,1.4,7.9,4.1S-116.3,382.8-116.3,387.6z M-123.4,388
			c0-4.6-0.2-7.6-0.6-8.9c-0.4-1.3-1.2-2-2.5-2c-1.1,0-1.9,0.6-2.4,1.7c-0.5,1.1-0.7,4.2-0.7,9.2c0,5,0.2,8,0.7,9.2s1.3,1.7,2.4,1.7
			c1.1,0,1.9-0.5,2.4-1.6S-123.4,393.1-123.4,388z"/>
		<path class="st7" d="M-103.2,372.2h7.3v18.6h3.4v5.2H-96v7.2h-6.7V396h-11v-5.2L-103.2,372.2z M-102.1,391.2v-12.6l-6.8,12.6
			H-102.1z"/>
		<path class="st7" d="M-79.9,372.7h18.6v5.2h-11.8v7.1h9.2v5.2h-9.2v7.5h11.8v5.5h-18.6V372.7z"/>
		<path class="st7" d="M-58.1,372.7h9.6c1.9,0,3.3,0.1,4.3,0.3c1,0.2,2,0.6,3,1.4c1,0.8,1.8,1.8,2.4,3.1c0.6,1.3,0.9,2.8,0.9,4.4
			c0,3.8-1.4,6.5-4.3,8l5.6,13.3H-44l-4.1-12.1h-3.4v12.1h-6.7V372.7z M-51.4,377.6v8.6h3c2.6,0,3.9-1.5,3.9-4.4
			c0-1-0.2-1.8-0.6-2.5c-0.4-0.6-0.8-1.1-1.4-1.3c-0.5-0.2-1.3-0.3-2.3-0.3H-51.4z"/>
		<path class="st7" d="M-33.2,372.7h9.6c1.9,0,3.3,0.1,4.3,0.3c1,0.2,2,0.6,3,1.4c1,0.8,1.8,1.8,2.4,3.1c0.6,1.3,0.9,2.8,0.9,4.4
			c0,3.8-1.4,6.5-4.3,8l5.6,13.3H-19l-4.1-12.1h-3.4v12.1h-6.7V372.7z M-26.5,377.6v8.6h3c2.6,0,3.9-1.5,3.9-4.4
			c0-1-0.2-1.8-0.6-2.5c-0.4-0.6-0.8-1.1-1.4-1.3c-0.5-0.2-1.3-0.3-2.3-0.3H-26.5z"/>
		<path class="st7" d="M12.9,387.9c0,10.5-3.7,15.7-11.1,15.7c-3.7,0-6.4-1.3-8.3-4c-1.9-2.7-2.8-6.6-2.8-11.7
			c0-10.5,3.7-15.7,11.1-15.7c3.6,0,6.4,1.3,8.2,3.9S12.9,382.7,12.9,387.9z M5.8,387.9c0-4.1-0.3-6.9-1-8.2c-0.6-1.4-1.7-2-3.1-2
			c-1.4,0-2.4,0.7-3,2.1c-0.6,1.4-1,4.1-1,8.2c0,4,0.3,6.7,1,8.2c0.6,1.4,1.7,2.1,3.1,2.1c1.4,0,2.4-0.7,3.1-2S5.8,392.1,5.8,387.9z
			"/>
		<path class="st7" d="M17.5,372.7h9.6c1.9,0,3.3,0.1,4.3,0.3c1,0.2,2,0.6,3,1.4c1,0.8,1.8,1.8,2.4,3.1c0.6,1.3,0.9,2.8,0.9,4.4
			c0,3.8-1.4,6.5-4.3,8l5.6,13.3h-7.3l-4.1-12.1h-3.4v12.1h-6.7V372.7z M24.2,377.6v8.6h3c2.6,0,3.9-1.5,3.9-4.4
			c0-1-0.2-1.8-0.6-2.5c-0.4-0.6-0.8-1.1-1.4-1.3c-0.5-0.2-1.3-0.3-2.3-0.3H24.2z"/>
	</g>
	<g class="st13">
		<path class="st7" d="M-150.1,372.2h7.3v18.6h3.4v5.2h-3.4v7.2h-6.7V396h-11v-5.2L-150.1,372.2z M-148.9,391.2v-12.6l-6.8,12.6
			H-148.9z"/>
		<path class="st7" d="M-116.3,387.6c0,5.5-0.8,9.6-2.4,12.2c-1.6,2.6-4.2,3.9-7.8,3.9c-3.7,0-6.4-1.4-7.9-4.1s-2.3-6.5-2.3-11.3
			c0-5.5,0.8-9.6,2.4-12.2c1.6-2.6,4.2-3.9,7.8-3.9c3.7,0,6.4,1.4,7.9,4.1S-116.3,382.8-116.3,387.6z M-123.4,388
			c0-4.6-0.2-7.6-0.6-8.9c-0.4-1.3-1.2-2-2.5-2c-1.1,0-1.9,0.6-2.4,1.7c-0.5,1.1-0.7,4.2-0.7,9.2c0,5,0.2,8,0.7,9.2s1.3,1.7,2.4,1.7
			c1.1,0,1.9-0.5,2.4-1.6S-123.4,393.1-123.4,388z"/>
		<path class="st7" d="M-103.2,372.2h7.3v18.6h3.4v5.2H-96v7.2h-6.7V396h-11v-5.2L-103.2,372.2z M-102.1,391.2v-12.6l-6.8,12.6
			H-102.1z"/>
		<path class="st7" d="M-79.9,372.7h18.6v5.2h-11.8v7.1h9.2v5.2h-9.2v7.5h11.8v5.5h-18.6V372.7z"/>
		<path class="st7" d="M-58.1,372.7h9.6c1.9,0,3.3,0.1,4.3,0.3c1,0.2,2,0.6,3,1.4c1,0.8,1.8,1.8,2.4,3.1c0.6,1.3,0.9,2.8,0.9,4.4
			c0,3.8-1.4,6.5-4.3,8l5.6,13.3H-44l-4.1-12.1h-3.4v12.1h-6.7V372.7z M-51.4,377.6v8.6h3c2.6,0,3.9-1.5,3.9-4.4
			c0-1-0.2-1.8-0.6-2.5c-0.4-0.6-0.8-1.1-1.4-1.3c-0.5-0.2-1.3-0.3-2.3-0.3H-51.4z"/>
		<path class="st7" d="M-33.2,372.7h9.6c1.9,0,3.3,0.1,4.3,0.3c1,0.2,2,0.6,3,1.4c1,0.8,1.8,1.8,2.4,3.1c0.6,1.3,0.9,2.8,0.9,4.4
			c0,3.8-1.4,6.5-4.3,8l5.6,13.3H-19l-4.1-12.1h-3.4v12.1h-6.7V372.7z M-26.5,377.6v8.6h3c2.6,0,3.9-1.5,3.9-4.4
			c0-1-0.2-1.8-0.6-2.5c-0.4-0.6-0.8-1.1-1.4-1.3c-0.5-0.2-1.3-0.3-2.3-0.3H-26.5z"/>
		<path class="st7" d="M12.9,387.9c0,10.5-3.7,15.7-11.1,15.7c-3.7,0-6.4-1.3-8.3-4c-1.9-2.7-2.8-6.6-2.8-11.7
			c0-10.5,3.7-15.7,11.1-15.7c3.6,0,6.4,1.3,8.2,3.9S12.9,382.7,12.9,387.9z M5.8,387.9c0-4.1-0.3-6.9-1-8.2c-0.6-1.4-1.7-2-3.1-2
			c-1.4,0-2.4,0.7-3,2.1c-0.6,1.4-1,4.1-1,8.2c0,4,0.3,6.7,1,8.2c0.6,1.4,1.7,2.1,3.1,2.1c1.4,0,2.4-0.7,3.1-2S5.8,392.1,5.8,387.9z
			"/>
		<path class="st7" d="M17.5,372.7h9.6c1.9,0,3.3,0.1,4.3,0.3c1,0.2,2,0.6,3,1.4c1,0.8,1.8,1.8,2.4,3.1c0.6,1.3,0.9,2.8,0.9,4.4
			c0,3.8-1.4,6.5-4.3,8l5.6,13.3h-7.3l-4.1-12.1h-3.4v12.1h-6.7V372.7z M24.2,377.6v8.6h3c2.6,0,3.9-1.5,3.9-4.4
			c0-1-0.2-1.8-0.6-2.5c-0.4-0.6-0.8-1.1-1.4-1.3c-0.5-0.2-1.3-0.3-2.3-0.3H24.2z"/>
	</g>
	<g class="st13">
		<path class="st7" d="M-150.1,372.2h7.3v18.6h3.4v5.2h-3.4v7.2h-6.7V396h-11v-5.2L-150.1,372.2z M-148.9,391.2v-12.6l-6.8,12.6
			H-148.9z"/>
		<path class="st7" d="M-116.3,387.6c0,5.5-0.8,9.6-2.4,12.2c-1.6,2.6-4.2,3.9-7.8,3.9c-3.7,0-6.4-1.4-7.9-4.1s-2.3-6.5-2.3-11.3
			c0-5.5,0.8-9.6,2.4-12.2c1.6-2.6,4.2-3.9,7.8-3.9c3.7,0,6.4,1.4,7.9,4.1S-116.3,382.8-116.3,387.6z M-123.4,388
			c0-4.6-0.2-7.6-0.6-8.9c-0.4-1.3-1.2-2-2.5-2c-1.1,0-1.9,0.6-2.4,1.7c-0.5,1.1-0.7,4.2-0.7,9.2c0,5,0.2,8,0.7,9.2s1.3,1.7,2.4,1.7
			c1.1,0,1.9-0.5,2.4-1.6S-123.4,393.1-123.4,388z"/>
		<path class="st7" d="M-103.2,372.2h7.3v18.6h3.4v5.2H-96v7.2h-6.7V396h-11v-5.2L-103.2,372.2z M-102.1,391.2v-12.6l-6.8,12.6
			H-102.1z"/>
		<path class="st7" d="M-79.9,372.7h18.6v5.2h-11.8v7.1h9.2v5.2h-9.2v7.5h11.8v5.5h-18.6V372.7z"/>
		<path class="st7" d="M-58.1,372.7h9.6c1.9,0,3.3,0.1,4.3,0.3c1,0.2,2,0.6,3,1.4c1,0.8,1.8,1.8,2.4,3.1c0.6,1.3,0.9,2.8,0.9,4.4
			c0,3.8-1.4,6.5-4.3,8l5.6,13.3H-44l-4.1-12.1h-3.4v12.1h-6.7V372.7z M-51.4,377.6v8.6h3c2.6,0,3.9-1.5,3.9-4.4
			c0-1-0.2-1.8-0.6-2.5c-0.4-0.6-0.8-1.1-1.4-1.3c-0.5-0.2-1.3-0.3-2.3-0.3H-51.4z"/>
		<path class="st7" d="M-33.2,372.7h9.6c1.9,0,3.3,0.1,4.3,0.3c1,0.2,2,0.6,3,1.4c1,0.8,1.8,1.8,2.4,3.1c0.6,1.3,0.9,2.8,0.9,4.4
			c0,3.8-1.4,6.5-4.3,8l5.6,13.3H-19l-4.1-12.1h-3.4v12.1h-6.7V372.7z M-26.5,377.6v8.6h3c2.6,0,3.9-1.5,3.9-4.4
			c0-1-0.2-1.8-0.6-2.5c-0.4-0.6-0.8-1.1-1.4-1.3c-0.5-0.2-1.3-0.3-2.3-0.3H-26.5z"/>
		<path class="st7" d="M12.9,387.9c0,10.5-3.7,15.7-11.1,15.7c-3.7,0-6.4-1.3-8.3-4c-1.9-2.7-2.8-6.6-2.8-11.7
			c0-10.5,3.7-15.7,11.1-15.7c3.6,0,6.4,1.3,8.2,3.9S12.9,382.7,12.9,387.9z M5.8,387.9c0-4.1-0.3-6.9-1-8.2c-0.6-1.4-1.7-2-3.1-2
			c-1.4,0-2.4,0.7-3,2.1c-0.6,1.4-1,4.1-1,8.2c0,4,0.3,6.7,1,8.2c0.6,1.4,1.7,2.1,3.1,2.1c1.4,0,2.4-0.7,3.1-2S5.8,392.1,5.8,387.9z
			"/>
		<path class="st7" d="M17.5,372.7h9.6c1.9,0,3.3,0.1,4.3,0.3c1,0.2,2,0.6,3,1.4c1,0.8,1.8,1.8,2.4,3.1c0.6,1.3,0.9,2.8,0.9,4.4
			c0,3.8-1.4,6.5-4.3,8l5.6,13.3h-7.3l-4.1-12.1h-3.4v12.1h-6.7V372.7z M24.2,377.6v8.6h3c2.6,0,3.9-1.5,3.9-4.4
			c0-1-0.2-1.8-0.6-2.5c-0.4-0.6-0.8-1.1-1.4-1.3c-0.5-0.2-1.3-0.3-2.3-0.3H24.2z"/>
	</g>
</g>
</svg>
