<?xml version="1.0" encoding="utf-8"?>
<!-- Generator: Adobe Illustrator 19.0.0, SVG Export Plug-In . SVG Version: 6.00 Build 0)  -->
<svg version="1.1" id="Layer_1" xmlns="http://www.w3.org/2000/svg" xmlns:xlink="http://www.w3.org/1999/xlink" x="0px" y="0px"
	 viewBox="0 0 243 69.3" style="enable-background:new 0 0 243 69.3;" xml:space="preserve">
<style type="text/css">
	.st0{fill:#FECD32;}
	.st1{fill:#E09C14;}
	.st2{fill:#FFFFFF;}
</style>
<g id="XMLID_113_">
	<g id="XMLID_114_">
		<g id="XMLID_115_">
			<path id="XMLID_116_" class="st0" d="M28.3,6H5.2l9.6,9.6h13.6c4.2,0,7.6,3.4,7.6,7.6c0,4.2-3.4,7.6-7.6,7.6H14.7l-9.6,9.6h23.1
				c9.5,0,17.2-7.7,17.2-17.2C45.5,13.7,37.8,6,28.3,6z"/>
		</g>
		<g id="XMLID_117_">
			<path id="XMLID_118_" class="st0" d="M14.7,15.5L5.2,6v17.6c0,5,6,7.5,9.6,4l0,0V15.5z"/>
		</g>
	</g>
	<g id="XMLID_119_">
		<g id="XMLID_120_">
			<path id="XMLID_121_" class="st0" d="M31.8,30.8H14.7l-9.6,9.6h9.6H32h0.3c3.3,0,6.1,2.1,7.2,5c0,0.1,0.1,0.2,0.1,0.3
				c0,0.1,0,0.1,0.1,0.2c0,0.2,0.1,0.3,0.1,0.5c0,0.1,0,0.2,0,0.2c0,0.1,0,0.2,0.1,0.4c0,0,0,0.1,0,0.1c0,0.2,0,0.3,0,0.5
				c0,0.1,0,0.2,0,0.3c0,0,0,0,0,0.1c0,0.2,0,0.3,0,0.5c0,0.1,0,0.2,0,0.3c0,0.2-0.1,0.4-0.1,0.7c0,0,0,0.1,0,0.1
				c-0.1,0.3-0.1,0.5-0.2,0.8c0,0.1-0.1,0.1-0.1,0.2c-0.1,0.2-0.1,0.3-0.2,0.5c0,0.1-0.1,0.2-0.1,0.3c-0.1,0.1-0.1,0.3-0.2,0.4
				c-0.1,0.1-0.1,0.2-0.2,0.3c-0.1,0.1-0.2,0.3-0.2,0.4c-0.1,0.1-0.1,0.2-0.2,0.3c-0.1,0.1-0.2,0.2-0.3,0.3
				c-0.1,0.1-0.1,0.2-0.2,0.2c-0.1,0.1-0.2,0.2-0.3,0.3c-0.1,0.1-0.2,0.2-0.3,0.2c-0.1,0.1-0.2,0.2-0.3,0.3
				c-0.1,0.1-0.2,0.1-0.3,0.2c-0.1,0.1-0.2,0.2-0.4,0.2c-0.1,0.1-0.2,0.1-0.3,0.2c-0.1,0.1-0.3,0.1-0.4,0.2c-0.1,0-0.2,0.1-0.3,0.1
				c-0.1,0.1-0.3,0.1-0.4,0.2c-0.1,0-0.2,0.1-0.3,0.1c-0.1,0-0.3,0.1-0.5,0.1c-0.1,0-0.2,0.1-0.3,0.1c-0.2,0-0.3,0.1-0.5,0.1
				c-0.1,0-0.2,0-0.3,0c-0.3,0-0.5,0-0.8,0H14.7l-9.6,9.6h27.1c9.8,0,17.7-8.2,17.2-18.1C49,37.9,41.1,30.8,31.8,30.8z"/>
		</g>
		<g id="XMLID_122_">
			<path id="XMLID_123_" class="st1" d="M5.2,40.3v8.1c0,5,6,7.5,9.6,4v-12H5.2z"/>
		</g>
	</g>
</g>
<g id="XMLID_179_">
	<path id="XMLID_180_" class="st2" d="M58.1,35.1h6v15.5c0,2.5,0.1,4.1,0.2,4.8c0.3,1.2,0.9,2.1,1.8,2.8c1,0.7,2.3,1.1,4,1.1
		c1.7,0,3-0.3,3.9-1c0.9-0.7,1.4-1.5,1.6-2.5c0.2-1,0.3-2.6,0.3-4.9V35.1h6v15c0,3.4-0.2,5.9-0.5,7.3c-0.3,1.4-0.9,2.6-1.8,3.6
		c-0.9,1-2,1.8-3.5,2.3c-1.5,0.6-3.4,0.9-5.7,0.9c-2.9,0-5-0.3-6.5-1s-2.6-1.5-3.5-2.5c-0.9-1-1.4-2.1-1.7-3.2
		c-0.4-1.6-0.6-4-0.6-7.3V35.1z"/>
	<path id="XMLID_182_" class="st2" d="M102.2,53.2v-4.8h13v11.4c-1.3,1.2-3.1,2.2-5.5,3.1s-4.8,1.3-7.3,1.3c-3.1,0-5.9-0.6-8.2-1.9
		c-2.3-1.3-4.1-3.1-5.2-5.4s-1.8-4.9-1.8-7.6c0-3,0.7-5.6,2-8c1.3-2.3,3.2-4.1,5.7-5.3c1.9-1,4.3-1.4,7.2-1.4c3.7,0,6.6,0.7,8.7,2.2
		c2.1,1.5,3.4,3.6,4,6.2l-6,1.1c-0.4-1.4-1.2-2.5-2.4-3.3c-1.2-0.8-2.6-1.2-4.3-1.2c-2.6,0-4.7,0.8-6.3,2.4c-1.6,1.6-2.3,4-2.3,7.1
		c0,3.4,0.8,6,2.4,7.7c1.6,1.7,3.6,2.6,6.2,2.6c1.3,0,2.5-0.2,3.8-0.7c1.3-0.5,2.4-1.1,3.3-1.7v-3.6H102.2z"/>
	<path id="XMLID_184_" class="st2" d="M120.8,63.8V35.1h20.5V40h-14.4v6.8h12.5v4.9h-12.5v12.2H120.8z"/>
	<path id="XMLID_186_" class="st2" d="M146.1,63.8V35.1h6v28.6H146.1z"/>
	<path id="XMLID_188_" class="st2" d="M154.8,63.8L165,48.8l-9.2-13.7h7l6,9.2l5.9-9.2h7L172.4,49l10.2,14.7h-7.3l-6.6-9.9l-6.6,9.9
		H154.8z"/>
	<path id="XMLID_190_" class="st2" d="M185.7,63.8V35.1h22.2V40h-16.1v6.3h15v4.8h-15v7.8h16.7v4.8H185.7z"/>
	<path id="XMLID_192_" class="st2" d="M213.5,63.8V35.1h12.7c3.2,0,5.5,0.3,7,0.8c1.5,0.5,2.6,1.4,3.5,2.7s1.3,2.8,1.3,4.5
		c0,2.1-0.7,3.9-2,5.3c-1.3,1.4-3.3,2.3-5.9,2.6c1.3,0.7,2.4,1.5,3.2,2.4c0.8,0.9,2,2.4,3.4,4.7l3.6,5.6h-7.2l-4.4-6.2
		c-1.5-2.2-2.6-3.6-3.2-4.2c-0.6-0.6-1.2-1-1.8-1.2c-0.6-0.2-1.7-0.3-3-0.3h-1.2v12H213.5z M219.6,47.2h4.5c2.9,0,4.7-0.1,5.4-0.4
		c0.7-0.2,1.3-0.6,1.7-1.2c0.4-0.6,0.6-1.3,0.6-2.1c0-1-0.3-1.7-0.8-2.3c-0.5-0.6-1.3-1-2.3-1.1c-0.5-0.1-1.9-0.1-4.4-0.1h-4.7V47.2
		z"/>
</g>
<g id="XMLID_112_">
	<path id="XMLID_124_" class="st2" d="M58.1,35.1h6v15.5c0,2.5,0.1,4.1,0.2,4.8c0.3,1.2,0.9,2.1,1.8,2.8c1,0.7,2.3,1.1,4,1.1
		c1.7,0,3-0.3,3.9-1c0.9-0.7,1.4-1.5,1.6-2.5c0.2-1,0.3-2.6,0.3-4.9V35.1h6v15c0,3.4-0.2,5.9-0.5,7.3c-0.3,1.4-0.9,2.6-1.8,3.6
		c-0.9,1-2,1.8-3.5,2.3c-1.5,0.6-3.4,0.9-5.7,0.9c-2.9,0-5-0.3-6.5-1s-2.6-1.5-3.5-2.5c-0.9-1-1.4-2.1-1.7-3.2
		c-0.4-1.6-0.6-4-0.6-7.3V35.1z"/>
	<path id="XMLID_126_" class="st2" d="M102.2,53.2v-4.8h13v11.4c-1.3,1.2-3.1,2.2-5.5,3.1s-4.8,1.3-7.3,1.3c-3.1,0-5.9-0.6-8.2-1.9
		c-2.3-1.3-4.1-3.1-5.2-5.4s-1.8-4.9-1.8-7.6c0-3,0.7-5.6,2-8c1.3-2.3,3.2-4.1,5.7-5.3c1.9-1,4.3-1.4,7.2-1.4c3.7,0,6.6,0.7,8.7,2.2
		c2.1,1.5,3.4,3.6,4,6.2l-6,1.1c-0.4-1.4-1.2-2.5-2.4-3.3c-1.2-0.8-2.6-1.2-4.3-1.2c-2.6,0-4.7,0.8-6.3,2.4c-1.6,1.6-2.3,4-2.3,7.1
		c0,3.4,0.8,6,2.4,7.7c1.6,1.7,3.6,2.6,6.2,2.6c1.3,0,2.5-0.2,3.8-0.7c1.3-0.5,2.4-1.1,3.3-1.7v-3.6H102.2z"/>
	<path id="XMLID_128_" class="st2" d="M120.8,63.8V35.1h20.5V40h-14.4v6.8h12.5v4.9h-12.5v12.2H120.8z"/>
	<path id="XMLID_130_" class="st2" d="M146.1,63.8V35.1h6v28.6H146.1z"/>
	<path id="XMLID_132_" class="st2" d="M154.8,63.8L165,48.8l-9.2-13.7h7l6,9.2l5.9-9.2h7L172.4,49l10.2,14.7h-7.3l-6.6-9.9l-6.6,9.9
		H154.8z"/>
	<path id="XMLID_134_" class="st2" d="M185.7,63.8V35.1h22.2V40h-16.1v6.3h15v4.8h-15v7.8h16.7v4.8H185.7z"/>
	<path id="XMLID_136_" class="st2" d="M213.5,63.8V35.1h12.7c3.2,0,5.5,0.3,7,0.8c1.5,0.5,2.6,1.4,3.5,2.7s1.3,2.8,1.3,4.5
		c0,2.1-0.7,3.9-2,5.3c-1.3,1.4-3.3,2.3-5.9,2.6c1.3,0.7,2.4,1.5,3.2,2.4c0.8,0.9,2,2.4,3.4,4.7l3.6,5.6h-7.2l-4.4-6.2
		c-1.5-2.2-2.6-3.6-3.2-4.2c-0.6-0.6-1.2-1-1.8-1.2c-0.6-0.2-1.7-0.3-3-0.3h-1.2v12H213.5z M219.6,47.2h4.5c2.9,0,4.7-0.1,5.4-0.4
		c0.7-0.2,1.3-0.6,1.7-1.2c0.4-0.6,0.6-1.3,0.6-2.1c0-1-0.3-1.7-0.8-2.3c-0.5-0.6-1.3-1-2.3-1.1c-0.5-0.1-1.9-0.1-4.4-0.1h-4.7V47.2
		z"/>
</g>
<g id="XMLID_67_">
	<path id="XMLID_56_" class="st2" d="M58.1,35.1h6v15.5c0,2.5,0.1,4.1,0.2,4.8c0.3,1.2,0.9,2.1,1.8,2.8c1,0.7,2.3,1.1,4,1.1
		c1.7,0,3-0.3,3.9-1c0.9-0.7,1.4-1.5,1.6-2.5c0.2-1,0.3-2.6,0.3-4.9V35.1h6v15c0,3.4-0.2,5.9-0.5,7.3c-0.3,1.4-0.9,2.6-1.8,3.6
		c-0.9,1-2,1.8-3.5,2.3c-1.5,0.6-3.4,0.9-5.7,0.9c-2.9,0-5-0.3-6.5-1s-2.6-1.5-3.5-2.5c-0.9-1-1.4-2.1-1.7-3.2
		c-0.4-1.6-0.6-4-0.6-7.3V35.1z"/>
	<path id="XMLID_58_" class="st2" d="M102.2,53.2v-4.8h13v11.4c-1.3,1.2-3.1,2.2-5.5,3.1s-4.8,1.3-7.3,1.3c-3.1,0-5.9-0.6-8.2-1.9
		c-2.3-1.3-4.1-3.1-5.2-5.4s-1.8-4.9-1.8-7.6c0-3,0.7-5.6,2-8c1.3-2.3,3.2-4.1,5.7-5.3c1.9-1,4.3-1.4,7.2-1.4c3.7,0,6.6,0.7,8.7,2.2
		c2.1,1.5,3.4,3.6,4,6.2l-6,1.1c-0.4-1.4-1.2-2.5-2.4-3.3c-1.2-0.8-2.6-1.2-4.3-1.2c-2.6,0-4.7,0.8-6.3,2.4c-1.6,1.6-2.3,4-2.3,7.1
		c0,3.4,0.8,6,2.4,7.7c1.6,1.7,3.6,2.6,6.2,2.6c1.3,0,2.5-0.2,3.8-0.7c1.3-0.5,2.4-1.1,3.3-1.7v-3.6H102.2z"/>
	<path id="XMLID_60_" class="st2" d="M120.8,63.8V35.1h20.5V40h-14.4v6.8h12.5v4.9h-12.5v12.2H120.8z"/>
	<path id="XMLID_62_" class="st2" d="M146.1,63.8V35.1h6v28.6H146.1z"/>
	<path id="XMLID_64_" class="st2" d="M154.8,63.8L165,48.8l-9.2-13.7h7l6,9.2l5.9-9.2h7L172.4,49l10.2,14.7h-7.3l-6.6-9.9l-6.6,9.9
		H154.8z"/>
	<path id="XMLID_66_" class="st2" d="M185.7,63.8V35.1h22.2V40h-16.1v6.3h15v4.8h-15v7.8h16.7v4.8H185.7z"/>
	<path id="XMLID_69_" class="st2" d="M213.5,63.8V35.1h12.7c3.2,0,5.5,0.3,7,0.8c1.5,0.5,2.6,1.4,3.5,2.7s1.3,2.8,1.3,4.5
		c0,2.1-0.7,3.9-2,5.3c-1.3,1.4-3.3,2.3-5.9,2.6c1.3,0.7,2.4,1.5,3.2,2.4c0.8,0.9,2,2.4,3.4,4.7l3.6,5.6h-7.2l-4.4-6.2
		c-1.5-2.2-2.6-3.6-3.2-4.2c-0.6-0.6-1.2-1-1.8-1.2c-0.6-0.2-1.7-0.3-3-0.3h-1.2v12H213.5z M219.6,47.2h4.5c2.9,0,4.7-0.1,5.4-0.4
		c0.7-0.2,1.3-0.6,1.7-1.2c0.4-0.6,0.6-1.3,0.6-2.1c0-1-0.3-1.7-0.8-2.3c-0.5-0.6-1.3-1-2.3-1.1c-0.5-0.1-1.9-0.1-4.4-0.1h-4.7V47.2
		z"/>
</g>
<g id="XMLID_195_">
	<path id="XMLID_196_" class="st2" d="M58,23.6V9.3h9.9v2.4h-7v3.4h6v2.4h-6v6.1H58z"/>
	<path id="XMLID_198_" class="st2" d="M83.2,23.6H80l-1.3-3.2H73l-1.2,3.2h-3.1l5.6-14.3h3.1L83.2,23.6z M77.9,17.9l-2-5.3l-1.9,5.3
		H77.9z"/>
	<path id="XMLID_201_" class="st2" d="M96.3,21.8c0.7,0.5,1.5,0.9,2.3,1.2L97.6,25c-0.4-0.1-0.9-0.3-1.3-0.5c-0.1,0-0.7-0.5-1.9-1.3
		c-0.9,0.4-2,0.6-3.1,0.6c-2.2,0-3.9-0.6-5.2-1.9s-1.9-3.1-1.9-5.5s0.6-4.2,1.9-5.5C87.3,9.7,89,9,91.2,9c2.1,0,3.8,0.6,5.1,1.9
		c1.3,1.3,1.9,3.1,1.9,5.5c0,1.2-0.2,2.3-0.5,3.3C97.3,20.4,96.9,21.1,96.3,21.8z M94,20.2c0.4-0.4,0.6-1,0.8-1.6
		c0.2-0.6,0.3-1.3,0.3-2.1c0-1.7-0.4-2.9-1.1-3.7c-0.7-0.8-1.7-1.2-2.9-1.2c-1.2,0-2.1,0.4-2.9,1.2c-0.7,0.8-1.1,2.1-1.1,3.7
		c0,1.7,0.4,2.9,1.1,3.7c0.7,0.8,1.7,1.2,2.8,1.2c0.4,0,0.8-0.1,1.2-0.2c-0.6-0.4-1.2-0.7-1.8-0.9l0.8-1.6
		C92.2,19,93.1,19.5,94,20.2z"/>
	<path id="XMLID_204_" class="st2" d="M105.8,18.3c0-0.9,0.2-1.8,0.7-2.6c0.5-0.9,1.1-1.5,1.9-2c0.8-0.5,1.8-0.7,2.8-0.7
		c1.6,0,2.9,0.5,3.9,1.5c1,1,1.5,2.3,1.5,3.9c0,1.6-0.5,2.9-1.5,3.9c-1,1-2.3,1.5-3.8,1.5c-1,0-1.9-0.2-2.7-0.6
		c-0.9-0.4-1.5-1.1-2-1.9C106.1,20.5,105.8,19.5,105.8,18.3z M108.7,18.4c0,1,0.2,1.8,0.7,2.4c0.5,0.5,1.1,0.8,1.8,0.8
		c0.7,0,1.3-0.3,1.8-0.8c0.5-0.5,0.7-1.3,0.7-2.4c0-1-0.2-1.8-0.7-2.3c-0.5-0.5-1.1-0.8-1.8-0.8c-0.7,0-1.3,0.3-1.8,0.8
		C108.9,16.6,108.7,17.4,108.7,18.4z"/>
	<path id="XMLID_207_" class="st2" d="M117.5,13.2h1.5v-0.8c0-0.9,0.1-1.5,0.3-1.9c0.2-0.4,0.5-0.8,1-1c0.5-0.3,1.1-0.4,1.9-0.4
		c0.8,0,1.6,0.1,2.3,0.4l-0.4,1.9c-0.4-0.1-0.9-0.2-1.3-0.2c-0.4,0-0.7,0.1-0.9,0.3c-0.2,0.2-0.3,0.5-0.3,1.1v0.7h2.1v2.2h-2.1v8.2
		h-2.8v-8.2h-1.5V13.2z"/>
	<path id="XMLID_209_" class="st2" d="M131.6,9.3h5.3c1.2,0,2.1,0.1,2.7,0.3c0.9,0.2,1.6,0.7,2.2,1.3c0.6,0.6,1.1,1.4,1.4,2.3
		c0.3,0.9,0.5,2,0.5,3.4c0,1.2-0.1,2.2-0.4,3c-0.4,1-0.9,1.9-1.5,2.5c-0.5,0.5-1.2,0.9-2,1.1c-0.6,0.2-1.5,0.3-2.6,0.3h-5.5V9.3z
		 M134.5,11.7v9.5h2.2c0.8,0,1.4,0,1.8-0.1c0.5-0.1,0.9-0.3,1.2-0.6c0.3-0.3,0.6-0.7,0.8-1.4c0.2-0.6,0.3-1.5,0.3-2.6
		c0-1.1-0.1-2-0.3-2.5c-0.2-0.6-0.5-1.1-0.8-1.4c-0.4-0.3-0.8-0.6-1.3-0.7c-0.4-0.1-1.2-0.1-2.4-0.1H134.5z"/>
	<path id="XMLID_212_" class="st2" d="M152.1,20.3l2.7,0.5c-0.4,1-0.9,1.8-1.7,2.3c-0.8,0.5-1.7,0.8-2.9,0.8c-1.8,0-3.2-0.6-4-1.8
		c-0.7-0.9-1-2.1-1-3.6c0-1.7,0.5-3.1,1.4-4c0.9-1,2-1.5,3.4-1.5c1.5,0,2.8,0.5,3.7,1.5c0.9,1,1.3,2.6,1.3,4.7h-6.9
		c0,0.8,0.2,1.4,0.7,1.9c0.4,0.5,1,0.7,1.6,0.7c0.4,0,0.8-0.1,1.1-0.3C151.7,21.2,152,20.8,152.1,20.3z M152.3,17.5
		c0-0.8-0.2-1.4-0.6-1.8s-0.9-0.6-1.4-0.6c-0.6,0-1.1,0.2-1.5,0.7c-0.4,0.4-0.6,1-0.6,1.8H152.3z"/>
	<path id="XMLID_215_" class="st2" d="M160.1,23.6l-4.2-10.4h2.9l2,5.3l0.6,1.8c0.2-0.4,0.3-0.7,0.3-0.9c0.1-0.3,0.2-0.6,0.3-0.9
		l2-5.3h2.8l-4.1,10.4H160.1z"/>
	<path id="XMLID_217_" class="st2" d="M174.5,20.3l2.7,0.5c-0.4,1-0.9,1.8-1.7,2.3c-0.8,0.5-1.7,0.8-2.9,0.8c-1.8,0-3.2-0.6-4-1.8
		c-0.7-0.9-1-2.1-1-3.6c0-1.7,0.5-3.1,1.4-4c0.9-1,2-1.5,3.4-1.5c1.5,0,2.8,0.5,3.7,1.5c0.9,1,1.3,2.6,1.3,4.7h-6.9
		c0,0.8,0.2,1.4,0.7,1.9c0.4,0.5,1,0.7,1.6,0.7c0.4,0,0.8-0.1,1.1-0.3C174.1,21.2,174.3,20.8,174.5,20.3z M174.6,17.5
		c0-0.8-0.2-1.4-0.6-1.8s-0.9-0.6-1.4-0.6c-0.6,0-1.1,0.2-1.5,0.7c-0.4,0.4-0.6,1-0.6,1.8H174.6z"/>
	<path id="XMLID_220_" class="st2" d="M179.6,23.6V9.3h2.7v14.3H179.6z"/>
	<path id="XMLID_222_" class="st2" d="M184.5,18.3c0-0.9,0.2-1.8,0.7-2.6c0.5-0.9,1.1-1.5,1.9-2c0.8-0.5,1.8-0.7,2.8-0.7
		c1.6,0,2.9,0.5,3.9,1.5c1,1,1.5,2.3,1.5,3.9c0,1.6-0.5,2.9-1.5,3.9c-1,1-2.3,1.5-3.8,1.5c-1,0-1.9-0.2-2.7-0.6
		c-0.9-0.4-1.5-1.1-2-1.9C184.8,20.5,184.5,19.5,184.5,18.3z M187.4,18.4c0,1,0.2,1.8,0.7,2.4c0.5,0.5,1.1,0.8,1.8,0.8
		c0.7,0,1.3-0.3,1.8-0.8c0.5-0.5,0.7-1.3,0.7-2.4c0-1-0.2-1.8-0.7-2.3c-0.5-0.5-1.1-0.8-1.8-0.8c-0.7,0-1.3,0.3-1.8,0.8
		C187.6,16.6,187.4,17.4,187.4,18.4z"/>
	<path id="XMLID_225_" class="st2" d="M197.4,13.2h2.6v1.5c0.3-0.5,0.8-0.9,1.4-1.3c0.6-0.3,1.2-0.5,1.9-0.5c1.2,0,2.2,0.5,3.1,1.4
		c0.8,0.9,1.3,2.3,1.3,3.9c0,1.7-0.4,3.1-1.3,4c-0.9,1-1.9,1.4-3.1,1.4c-0.6,0-1.1-0.1-1.6-0.3c-0.5-0.2-1-0.6-1.5-1.2v5.2h-2.8
		V13.2z M200.1,18.2c0,1.2,0.2,2,0.7,2.6c0.5,0.6,1,0.8,1.7,0.8c0.6,0,1.2-0.3,1.6-0.8s0.6-1.4,0.6-2.5c0-1.1-0.2-1.9-0.7-2.4
		c-0.4-0.5-1-0.8-1.6-0.8c-0.7,0-1.2,0.3-1.7,0.8C200.3,16.5,200.1,17.2,200.1,18.2z"/>
	<path id="XMLID_228_" class="st2" d="M215.8,20.3l2.7,0.5c-0.4,1-0.9,1.8-1.7,2.3c-0.8,0.5-1.7,0.8-2.9,0.8c-1.8,0-3.2-0.6-4-1.8
		c-0.7-0.9-1-2.1-1-3.6c0-1.7,0.5-3.1,1.4-4c0.9-1,2-1.5,3.4-1.5c1.5,0,2.8,0.5,3.7,1.5c0.9,1,1.3,2.6,1.3,4.7h-6.9
		c0,0.8,0.2,1.4,0.7,1.9c0.4,0.5,1,0.7,1.6,0.7c0.4,0,0.8-0.1,1.1-0.3C215.4,21.2,215.6,20.8,215.8,20.3z M215.9,17.5
		c0-0.8-0.2-1.4-0.6-1.8s-0.9-0.6-1.4-0.6c-0.6,0-1.1,0.2-1.5,0.7c-0.4,0.4-0.6,1-0.6,1.8H215.9z"/>
	<path id="XMLID_231_" class="st2" d="M223.5,23.6h-2.8V13.2h2.6v1.5c0.4-0.7,0.8-1.1,1.2-1.4c0.4-0.2,0.7-0.3,1.2-0.3
		c0.6,0,1.2,0.2,1.8,0.5l-0.8,2.4c-0.5-0.3-0.9-0.5-1.3-0.5c-0.4,0-0.7,0.1-1,0.3c-0.3,0.2-0.5,0.6-0.6,1.1
		c-0.2,0.6-0.2,1.7-0.2,3.5V23.6z"/>
	<path id="XMLID_233_" class="st2" d="M227.8,20.6l2.8-0.4c0.1,0.5,0.4,0.9,0.7,1.2c0.4,0.3,0.9,0.4,1.5,0.4c0.7,0,1.2-0.1,1.6-0.4
		c0.2-0.2,0.4-0.4,0.4-0.7c0-0.2-0.1-0.4-0.2-0.5c-0.1-0.1-0.4-0.2-0.9-0.4c-2.2-0.5-3.6-0.9-4.2-1.3c-0.8-0.6-1.2-1.3-1.2-2.3
		c0-0.9,0.4-1.6,1.1-2.3c0.7-0.6,1.8-0.9,3.3-0.9c1.4,0,2.5,0.2,3.2,0.7c0.7,0.5,1.2,1.1,1.4,2.1l-2.6,0.5c-0.1-0.4-0.3-0.7-0.6-0.9
		c-0.3-0.2-0.8-0.3-1.3-0.3c-0.7,0-1.2,0.1-1.6,0.3c-0.2,0.1-0.3,0.3-0.3,0.5c0,0.2,0.1,0.4,0.3,0.5c0.2,0.2,1.1,0.4,2.6,0.8
		c1.5,0.3,2.5,0.7,3.1,1.2c0.6,0.5,0.9,1.2,0.9,2c0,1-0.4,1.8-1.2,2.5s-2,1-3.5,1c-1.4,0-2.5-0.3-3.4-0.9
		C228.6,22.4,228,21.6,227.8,20.6z"/>
</g>
<g id="XMLID_139_">
	<path id="XMLID_140_" class="st2" d="M58,23.6V9.3h9.9v2.4h-7v3.4h6v2.4h-6v6.1H58z"/>
	<path id="XMLID_142_" class="st2" d="M83.2,23.6H80l-1.3-3.2H73l-1.2,3.2h-3.1l5.6-14.3h3.1L83.2,23.6z M77.9,17.9l-2-5.3l-1.9,5.3
		H77.9z"/>
	<path id="XMLID_145_" class="st2" d="M96.3,21.8c0.7,0.5,1.5,0.9,2.3,1.2L97.6,25c-0.4-0.1-0.9-0.3-1.3-0.5c-0.1,0-0.7-0.5-1.9-1.3
		c-0.9,0.4-2,0.6-3.1,0.6c-2.2,0-3.9-0.6-5.2-1.9s-1.9-3.1-1.9-5.5s0.6-4.2,1.9-5.5C87.3,9.7,89,9,91.2,9c2.1,0,3.8,0.6,5.1,1.9
		c1.3,1.3,1.9,3.1,1.9,5.5c0,1.2-0.2,2.3-0.5,3.3C97.3,20.4,96.9,21.1,96.3,21.8z M94,20.2c0.4-0.4,0.6-1,0.8-1.6
		c0.2-0.6,0.3-1.3,0.3-2.1c0-1.7-0.4-2.9-1.1-3.7c-0.7-0.8-1.7-1.2-2.9-1.2c-1.2,0-2.1,0.4-2.9,1.2c-0.7,0.8-1.1,2.1-1.1,3.7
		c0,1.7,0.4,2.9,1.1,3.7c0.7,0.8,1.7,1.2,2.8,1.2c0.4,0,0.8-0.1,1.2-0.2c-0.6-0.4-1.2-0.7-1.8-0.9l0.8-1.6
		C92.2,19,93.1,19.5,94,20.2z"/>
	<path id="XMLID_148_" class="st2" d="M105.8,18.3c0-0.9,0.2-1.8,0.7-2.6c0.5-0.9,1.1-1.5,1.9-2c0.8-0.5,1.8-0.7,2.8-0.7
		c1.6,0,2.9,0.5,3.9,1.5c1,1,1.5,2.3,1.5,3.9c0,1.6-0.5,2.9-1.5,3.9c-1,1-2.3,1.5-3.8,1.5c-1,0-1.9-0.2-2.7-0.6
		c-0.9-0.4-1.5-1.1-2-1.9C106.1,20.5,105.8,19.5,105.8,18.3z M108.7,18.4c0,1,0.2,1.8,0.7,2.4c0.5,0.5,1.1,0.8,1.8,0.8
		c0.7,0,1.3-0.3,1.8-0.8c0.5-0.5,0.7-1.3,0.7-2.4c0-1-0.2-1.8-0.7-2.3c-0.5-0.5-1.1-0.8-1.8-0.8c-0.7,0-1.3,0.3-1.8,0.8
		C108.9,16.6,108.7,17.4,108.7,18.4z"/>
	<path id="XMLID_151_" class="st2" d="M117.5,13.2h1.5v-0.8c0-0.9,0.1-1.5,0.3-1.9c0.2-0.4,0.5-0.8,1-1c0.5-0.3,1.1-0.4,1.9-0.4
		c0.8,0,1.6,0.1,2.3,0.4l-0.4,1.9c-0.4-0.1-0.9-0.2-1.3-0.2c-0.4,0-0.7,0.1-0.9,0.3c-0.2,0.2-0.3,0.5-0.3,1.1v0.7h2.1v2.2h-2.1v8.2
		h-2.8v-8.2h-1.5V13.2z"/>
	<path id="XMLID_153_" class="st2" d="M131.6,9.3h5.3c1.2,0,2.1,0.1,2.7,0.3c0.9,0.2,1.6,0.7,2.2,1.3c0.6,0.6,1.1,1.4,1.4,2.3
		c0.3,0.9,0.5,2,0.5,3.4c0,1.2-0.1,2.2-0.4,3c-0.4,1-0.9,1.9-1.5,2.5c-0.5,0.5-1.2,0.9-2,1.1c-0.6,0.2-1.5,0.3-2.6,0.3h-5.5V9.3z
		 M134.5,11.7v9.5h2.2c0.8,0,1.4,0,1.8-0.1c0.5-0.1,0.9-0.3,1.2-0.6c0.3-0.3,0.6-0.7,0.8-1.4c0.2-0.6,0.3-1.5,0.3-2.6
		c0-1.1-0.1-2-0.3-2.5c-0.2-0.6-0.5-1.1-0.8-1.4c-0.4-0.3-0.8-0.6-1.3-0.7c-0.4-0.1-1.2-0.1-2.4-0.1H134.5z"/>
	<path id="XMLID_156_" class="st2" d="M152.1,20.3l2.7,0.5c-0.4,1-0.9,1.8-1.7,2.3c-0.8,0.5-1.7,0.8-2.9,0.8c-1.8,0-3.2-0.6-4-1.8
		c-0.7-0.9-1-2.1-1-3.6c0-1.7,0.5-3.1,1.4-4c0.9-1,2-1.5,3.4-1.5c1.5,0,2.8,0.5,3.7,1.5c0.9,1,1.3,2.6,1.3,4.7h-6.9
		c0,0.8,0.2,1.4,0.7,1.9c0.4,0.5,1,0.7,1.6,0.7c0.4,0,0.8-0.1,1.1-0.3C151.7,21.2,152,20.8,152.1,20.3z M152.3,17.5
		c0-0.8-0.2-1.4-0.6-1.8s-0.9-0.6-1.4-0.6c-0.6,0-1.1,0.2-1.5,0.7c-0.4,0.4-0.6,1-0.6,1.8H152.3z"/>
	<path id="XMLID_159_" class="st2" d="M160.1,23.6l-4.2-10.4h2.9l2,5.3l0.6,1.8c0.2-0.4,0.3-0.7,0.3-0.9c0.1-0.3,0.2-0.6,0.3-0.9
		l2-5.3h2.8l-4.1,10.4H160.1z"/>
	<path id="XMLID_161_" class="st2" d="M174.5,20.3l2.7,0.5c-0.4,1-0.9,1.8-1.7,2.3c-0.8,0.5-1.7,0.8-2.9,0.8c-1.8,0-3.2-0.6-4-1.8
		c-0.7-0.9-1-2.1-1-3.6c0-1.7,0.5-3.1,1.4-4c0.9-1,2-1.5,3.4-1.5c1.5,0,2.8,0.5,3.7,1.5c0.9,1,1.3,2.6,1.3,4.7h-6.9
		c0,0.8,0.2,1.4,0.7,1.9c0.4,0.5,1,0.7,1.6,0.7c0.4,0,0.8-0.1,1.1-0.3C174.1,21.2,174.3,20.8,174.5,20.3z M174.6,17.5
		c0-0.8-0.2-1.4-0.6-1.8s-0.9-0.6-1.4-0.6c-0.6,0-1.1,0.2-1.5,0.7c-0.4,0.4-0.6,1-0.6,1.8H174.6z"/>
	<path id="XMLID_164_" class="st2" d="M179.6,23.6V9.3h2.7v14.3H179.6z"/>
	<path id="XMLID_166_" class="st2" d="M184.5,18.3c0-0.9,0.2-1.8,0.7-2.6c0.5-0.9,1.1-1.5,1.9-2c0.8-0.5,1.8-0.7,2.8-0.7
		c1.6,0,2.9,0.5,3.9,1.5c1,1,1.5,2.3,1.5,3.9c0,1.6-0.5,2.9-1.5,3.9c-1,1-2.3,1.5-3.8,1.5c-1,0-1.9-0.2-2.7-0.6
		c-0.9-0.4-1.5-1.1-2-1.9C184.8,20.5,184.5,19.5,184.5,18.3z M187.4,18.4c0,1,0.2,1.8,0.7,2.4c0.5,0.5,1.1,0.8,1.8,0.8
		c0.7,0,1.3-0.3,1.8-0.8c0.5-0.5,0.7-1.3,0.7-2.4c0-1-0.2-1.8-0.7-2.3c-0.5-0.5-1.1-0.8-1.8-0.8c-0.7,0-1.3,0.3-1.8,0.8
		C187.6,16.6,187.4,17.4,187.4,18.4z"/>
	<path id="XMLID_169_" class="st2" d="M197.4,13.2h2.6v1.5c0.3-0.5,0.8-0.9,1.4-1.3c0.6-0.3,1.2-0.5,1.9-0.5c1.2,0,2.2,0.5,3.1,1.4
		c0.8,0.9,1.3,2.3,1.3,3.9c0,1.7-0.4,3.1-1.3,4c-0.9,1-1.9,1.4-3.1,1.4c-0.6,0-1.1-0.1-1.6-0.3c-0.5-0.2-1-0.6-1.5-1.2v5.2h-2.8
		V13.2z M200.1,18.2c0,1.2,0.2,2,0.7,2.6c0.5,0.6,1,0.8,1.7,0.8c0.6,0,1.2-0.3,1.6-0.8s0.6-1.4,0.6-2.5c0-1.1-0.2-1.9-0.7-2.4
		c-0.4-0.5-1-0.8-1.6-0.8c-0.7,0-1.2,0.3-1.7,0.8C200.3,16.5,200.1,17.2,200.1,18.2z"/>
	<path id="XMLID_172_" class="st2" d="M215.8,20.3l2.7,0.5c-0.4,1-0.9,1.8-1.7,2.3c-0.8,0.5-1.7,0.8-2.9,0.8c-1.8,0-3.2-0.6-4-1.8
		c-0.7-0.9-1-2.1-1-3.6c0-1.7,0.5-3.1,1.4-4c0.9-1,2-1.5,3.4-1.5c1.5,0,2.8,0.5,3.7,1.5c0.9,1,1.3,2.6,1.3,4.7h-6.9
		c0,0.8,0.2,1.4,0.7,1.9c0.4,0.5,1,0.7,1.6,0.7c0.4,0,0.8-0.1,1.1-0.3C215.4,21.2,215.6,20.8,215.8,20.3z M215.9,17.5
		c0-0.8-0.2-1.4-0.6-1.8s-0.9-0.6-1.4-0.6c-0.6,0-1.1,0.2-1.5,0.7c-0.4,0.4-0.6,1-0.6,1.8H215.9z"/>
	<path id="XMLID_175_" class="st2" d="M223.5,23.6h-2.8V13.2h2.6v1.5c0.4-0.7,0.8-1.1,1.2-1.4c0.4-0.2,0.7-0.3,1.2-0.3
		c0.6,0,1.2,0.2,1.8,0.5l-0.8,2.4c-0.5-0.3-0.9-0.5-1.3-0.5c-0.4,0-0.7,0.1-1,0.3c-0.3,0.2-0.5,0.6-0.6,1.1
		c-0.2,0.6-0.2,1.7-0.2,3.5V23.6z"/>
	<path id="XMLID_177_" class="st2" d="M227.8,20.6l2.8-0.4c0.1,0.5,0.4,0.9,0.7,1.2c0.4,0.3,0.9,0.4,1.5,0.4c0.7,0,1.2-0.1,1.6-0.4
		c0.2-0.2,0.4-0.4,0.4-0.7c0-0.2-0.1-0.4-0.2-0.5c-0.1-0.1-0.4-0.2-0.9-0.4c-2.2-0.5-3.6-0.9-4.2-1.3c-0.8-0.6-1.2-1.3-1.2-2.3
		c0-0.9,0.4-1.6,1.1-2.3c0.7-0.6,1.8-0.9,3.3-0.9c1.4,0,2.5,0.2,3.2,0.7c0.7,0.5,1.2,1.1,1.4,2.1l-2.6,0.5c-0.1-0.4-0.3-0.7-0.6-0.9
		c-0.3-0.2-0.8-0.3-1.3-0.3c-0.7,0-1.2,0.1-1.6,0.3c-0.2,0.1-0.3,0.3-0.3,0.5c0,0.2,0.1,0.4,0.3,0.5c0.2,0.2,1.1,0.4,2.6,0.8
		c1.5,0.3,2.5,0.7,3.1,1.2c0.6,0.5,0.9,1.2,0.9,2c0,1-0.4,1.8-1.2,2.5s-2,1-3.5,1c-1.4,0-2.5-0.3-3.4-0.9
		C228.6,22.4,228,21.6,227.8,20.6z"/>
</g>
<g id="XMLID_15_">
	<path id="XMLID_72_" class="st2" d="M58,23.6V9.3h9.9v2.4h-7v3.4h6v2.4h-6v6.1H58z"/>
	<path id="XMLID_74_" class="st2" d="M83.2,23.6H80l-1.3-3.2H73l-1.2,3.2h-3.1l5.6-14.3h3.1L83.2,23.6z M77.9,17.9l-2-5.3l-1.9,5.3
		H77.9z"/>
	<path id="XMLID_77_" class="st2" d="M96.3,21.8c0.7,0.5,1.5,0.9,2.3,1.2L97.6,25c-0.4-0.1-0.9-0.3-1.3-0.5c-0.1,0-0.7-0.5-1.9-1.3
		c-0.9,0.4-2,0.6-3.1,0.6c-2.2,0-3.9-0.6-5.2-1.9s-1.9-3.1-1.9-5.5s0.6-4.2,1.9-5.5C87.3,9.7,89,9,91.2,9c2.1,0,3.8,0.6,5.1,1.9
		c1.3,1.3,1.9,3.1,1.9,5.5c0,1.2-0.2,2.3-0.5,3.3C97.3,20.4,96.9,21.1,96.3,21.8z M94,20.2c0.4-0.4,0.6-1,0.8-1.6
		c0.2-0.6,0.3-1.3,0.3-2.1c0-1.7-0.4-2.9-1.1-3.7c-0.7-0.8-1.7-1.2-2.9-1.2c-1.2,0-2.1,0.4-2.9,1.2c-0.7,0.8-1.1,2.1-1.1,3.7
		c0,1.7,0.4,2.9,1.1,3.7c0.7,0.8,1.7,1.2,2.8,1.2c0.4,0,0.8-0.1,1.2-0.2c-0.6-0.4-1.2-0.7-1.8-0.9l0.8-1.6
		C92.2,19,93.1,19.5,94,20.2z"/>
	<path id="XMLID_80_" class="st2" d="M105.8,18.3c0-0.9,0.2-1.8,0.7-2.6c0.5-0.9,1.1-1.5,1.9-2c0.8-0.5,1.8-0.7,2.8-0.7
		c1.6,0,2.9,0.5,3.9,1.5c1,1,1.5,2.3,1.5,3.9c0,1.6-0.5,2.9-1.5,3.9c-1,1-2.3,1.5-3.8,1.5c-1,0-1.9-0.2-2.7-0.6
		c-0.9-0.4-1.5-1.1-2-1.9C106.1,20.5,105.8,19.5,105.8,18.3z M108.7,18.4c0,1,0.2,1.8,0.7,2.4c0.5,0.5,1.1,0.8,1.8,0.8
		c0.7,0,1.3-0.3,1.8-0.8c0.5-0.5,0.7-1.3,0.7-2.4c0-1-0.2-1.8-0.7-2.3c-0.5-0.5-1.1-0.8-1.8-0.8c-0.7,0-1.3,0.3-1.8,0.8
		C108.9,16.6,108.7,17.4,108.7,18.4z"/>
	<path id="XMLID_83_" class="st2" d="M117.5,13.2h1.5v-0.8c0-0.9,0.1-1.5,0.3-1.9c0.2-0.4,0.5-0.8,1-1c0.5-0.3,1.1-0.4,1.9-0.4
		c0.8,0,1.6,0.1,2.3,0.4l-0.4,1.9c-0.4-0.1-0.9-0.2-1.3-0.2c-0.4,0-0.7,0.1-0.9,0.3c-0.2,0.2-0.3,0.5-0.3,1.1v0.7h2.1v2.2h-2.1v8.2
		h-2.8v-8.2h-1.5V13.2z"/>
	<path id="XMLID_85_" class="st2" d="M131.6,9.3h5.3c1.2,0,2.1,0.1,2.7,0.3c0.9,0.2,1.6,0.7,2.2,1.3c0.6,0.6,1.1,1.4,1.4,2.3
		c0.3,0.9,0.5,2,0.5,3.4c0,1.2-0.1,2.2-0.4,3c-0.4,1-0.9,1.9-1.5,2.5c-0.5,0.5-1.2,0.9-2,1.1c-0.6,0.2-1.5,0.3-2.6,0.3h-5.5V9.3z
		 M134.5,11.7v9.5h2.2c0.8,0,1.4,0,1.8-0.1c0.5-0.1,0.9-0.3,1.2-0.6c0.3-0.3,0.6-0.7,0.8-1.4c0.2-0.6,0.3-1.5,0.3-2.6
		c0-1.1-0.1-2-0.3-2.5c-0.2-0.6-0.5-1.1-0.8-1.4c-0.4-0.3-0.8-0.6-1.3-0.7c-0.4-0.1-1.2-0.1-2.4-0.1H134.5z"/>
	<path id="XMLID_88_" class="st2" d="M152.1,20.3l2.7,0.5c-0.4,1-0.9,1.8-1.7,2.3c-0.8,0.5-1.7,0.8-2.9,0.8c-1.8,0-3.2-0.6-4-1.8
		c-0.7-0.9-1-2.1-1-3.6c0-1.7,0.5-3.1,1.4-4c0.9-1,2-1.5,3.4-1.5c1.5,0,2.8,0.5,3.7,1.5c0.9,1,1.3,2.6,1.3,4.7h-6.9
		c0,0.8,0.2,1.4,0.7,1.9c0.4,0.5,1,0.7,1.6,0.7c0.4,0,0.8-0.1,1.1-0.3C151.7,21.2,152,20.8,152.1,20.3z M152.3,17.5
		c0-0.8-0.2-1.4-0.6-1.8s-0.9-0.6-1.4-0.6c-0.6,0-1.1,0.2-1.5,0.7c-0.4,0.4-0.6,1-0.6,1.8H152.3z"/>
	<path id="XMLID_91_" class="st2" d="M160.1,23.6l-4.2-10.4h2.9l2,5.3l0.6,1.8c0.2-0.4,0.3-0.7,0.3-0.9c0.1-0.3,0.2-0.6,0.3-0.9
		l2-5.3h2.8l-4.1,10.4H160.1z"/>
	<path id="XMLID_93_" class="st2" d="M174.5,20.3l2.7,0.5c-0.4,1-0.9,1.8-1.7,2.3c-0.8,0.5-1.7,0.8-2.9,0.8c-1.8,0-3.2-0.6-4-1.8
		c-0.7-0.9-1-2.1-1-3.6c0-1.7,0.5-3.1,1.4-4c0.9-1,2-1.5,3.4-1.5c1.5,0,2.8,0.5,3.7,1.5c0.9,1,1.3,2.6,1.3,4.7h-6.9
		c0,0.8,0.2,1.4,0.7,1.9c0.4,0.5,1,0.7,1.6,0.7c0.4,0,0.8-0.1,1.1-0.3C174.1,21.2,174.3,20.8,174.5,20.3z M174.6,17.5
		c0-0.8-0.2-1.4-0.6-1.8s-0.9-0.6-1.4-0.6c-0.6,0-1.1,0.2-1.5,0.7c-0.4,0.4-0.6,1-0.6,1.8H174.6z"/>
	<path id="XMLID_97_" class="st2" d="M179.6,23.6V9.3h2.7v14.3H179.6z"/>
	<path id="XMLID_99_" class="st2" d="M184.5,18.3c0-0.9,0.2-1.8,0.7-2.6c0.5-0.9,1.1-1.5,1.9-2c0.8-0.5,1.8-0.7,2.8-0.7
		c1.6,0,2.9,0.5,3.9,1.5c1,1,1.5,2.3,1.5,3.9c0,1.6-0.5,2.9-1.5,3.9c-1,1-2.3,1.5-3.8,1.5c-1,0-1.9-0.2-2.7-0.6
		c-0.9-0.4-1.5-1.1-2-1.9C184.8,20.5,184.5,19.5,184.5,18.3z M187.4,18.4c0,1,0.2,1.8,0.7,2.4c0.5,0.5,1.1,0.8,1.8,0.8
		c0.7,0,1.3-0.3,1.8-0.8c0.5-0.5,0.7-1.3,0.7-2.4c0-1-0.2-1.8-0.7-2.3c-0.5-0.5-1.1-0.8-1.8-0.8c-0.7,0-1.3,0.3-1.8,0.8
		C187.6,16.6,187.4,17.4,187.4,18.4z"/>
	<path id="XMLID_102_" class="st2" d="M197.4,13.2h2.6v1.5c0.3-0.5,0.8-0.9,1.4-1.3c0.6-0.3,1.2-0.5,1.9-0.5c1.2,0,2.2,0.5,3.1,1.4
		c0.8,0.9,1.3,2.3,1.3,3.9c0,1.7-0.4,3.1-1.3,4c-0.9,1-1.9,1.4-3.1,1.4c-0.6,0-1.1-0.1-1.6-0.3c-0.5-0.2-1-0.6-1.5-1.2v5.2h-2.8
		V13.2z M200.1,18.2c0,1.2,0.2,2,0.7,2.6c0.5,0.6,1,0.8,1.7,0.8c0.6,0,1.2-0.3,1.6-0.8s0.6-1.4,0.6-2.5c0-1.1-0.2-1.9-0.7-2.4
		c-0.4-0.5-1-0.8-1.6-0.8c-0.7,0-1.2,0.3-1.7,0.8C200.3,16.5,200.1,17.2,200.1,18.2z"/>
	<path id="XMLID_105_" class="st2" d="M215.8,20.3l2.7,0.5c-0.4,1-0.9,1.8-1.7,2.3c-0.8,0.5-1.7,0.8-2.9,0.8c-1.8,0-3.2-0.6-4-1.8
		c-0.7-0.9-1-2.1-1-3.6c0-1.7,0.5-3.1,1.4-4c0.9-1,2-1.5,3.4-1.5c1.5,0,2.8,0.5,3.7,1.5c0.9,1,1.3,2.6,1.3,4.7h-6.9
		c0,0.8,0.2,1.4,0.7,1.9c0.4,0.5,1,0.7,1.6,0.7c0.4,0,0.8-0.1,1.1-0.3C215.4,21.2,215.6,20.8,215.8,20.3z M215.9,17.5
		c0-0.8-0.2-1.4-0.6-1.8s-0.9-0.6-1.4-0.6c-0.6,0-1.1,0.2-1.5,0.7c-0.4,0.4-0.6,1-0.6,1.8H215.9z"/>
	<path id="XMLID_108_" class="st2" d="M223.5,23.6h-2.8V13.2h2.6v1.5c0.4-0.7,0.8-1.1,1.2-1.4c0.4-0.2,0.7-0.3,1.2-0.3
		c0.6,0,1.2,0.2,1.8,0.5l-0.8,2.4c-0.5-0.3-0.9-0.5-1.3-0.5c-0.4,0-0.7,0.1-1,0.3c-0.3,0.2-0.5,0.6-0.6,1.1
		c-0.2,0.6-0.2,1.7-0.2,3.5V23.6z"/>
	<path id="XMLID_110_" class="st2" d="M227.8,20.6l2.8-0.4c0.1,0.5,0.4,0.9,0.7,1.2c0.4,0.3,0.9,0.4,1.5,0.4c0.7,0,1.2-0.1,1.6-0.4
		c0.2-0.2,0.4-0.4,0.4-0.7c0-0.2-0.1-0.4-0.2-0.5c-0.1-0.1-0.4-0.2-0.9-0.4c-2.2-0.5-3.6-0.9-4.2-1.3c-0.8-0.6-1.2-1.3-1.2-2.3
		c0-0.9,0.4-1.6,1.1-2.3c0.7-0.6,1.8-0.9,3.3-0.9c1.4,0,2.5,0.2,3.2,0.7c0.7,0.5,1.2,1.1,1.4,2.1l-2.6,0.5c-0.1-0.4-0.3-0.7-0.6-0.9
		c-0.3-0.2-0.8-0.3-1.3-0.3c-0.7,0-1.2,0.1-1.6,0.3c-0.2,0.1-0.3,0.3-0.3,0.5c0,0.2,0.1,0.4,0.3,0.5c0.2,0.2,1.1,0.4,2.6,0.8
		c1.5,0.3,2.5,0.7,3.1,1.2c0.6,0.5,0.9,1.2,0.9,2c0,1-0.4,1.8-1.2,2.5s-2,1-3.5,1c-1.4,0-2.5-0.3-3.4-0.9
		C228.6,22.4,228,21.6,227.8,20.6z"/>
</g>
</svg>
